<svg xmlns="http://www.w3.org/2000/svg" xmlns:xlink="http://www.w3.org/1999/xlink" xmlns:lucid="lucid" width="1580" height="1185.85"><g transform="translate(-25.98425196850394 700)" lucid:page-tab-id="0_0"><path d="M0-1258.84h1870.87v2581.68H0z" fill="#fff"/><path d="M1484.72-192.9V264a6 6 0 0 1-6 6H381.57a6 6 0 0 0-6 6v33.94" stroke="#1071e5" stroke-width="3" fill="none"/><path d="M1484.72-194.4l1.5-.07v1.6h-3v-1.6z" stroke="#1071e5" stroke-width=".05" fill="#1071e5"/><path d="M375.57 325.7l-4.64-14.26h9.27z" stroke="#1071e5" stroke-width="3" fill="#1071e5"/><path d="M1484.72-192.9V104a6 6 0 0 1-6 6h-879.5a6 6 0 0 0-6 6v28.47" stroke="#1071e5" stroke-width="3" fill="none"/><path d="M1484.72-194.4l1.5-.07v1.6h-3v-1.6z" stroke="#1071e5" stroke-width=".05" fill="#1071e5"/><path d="M593.23 160.24l-4.64-14.27h9.26z" stroke="#1071e5" stroke-width="3" fill="#1071e5"/><path d="M45.98-494.1V-674a6 6 0 0 1 6-6h54v185.9z" stroke="#000" fill="#f2f3f5"/><path d="M45.98-494.1h60V-340h-60z" stroke="#000" fill="#dfe3e8"/><path d="M45.98-340h60v200h-60z" stroke="#000" fill="#ced4db"/><path d="M45.98-140h60v425.85h-60z" stroke="#000" fill="#979ea8"/><path d="M105.98 465.85h-54a6 6 0 0 1-6-6v-174h60z" stroke="#000" fill="#6f7681"/><path d="M105.98-680h1474a6 6 0 0 1 6 6v179.9h-1480zM105.98-494.1h1480V-340h-1480zM105.98-340h1480v200h-1480zM105.98-140h1480v425.85h-1480z" stroke="#000" fill="none"/><path d="M1585.98 285.85v174a6 6 0 0 1-6 6h-1474v-180z" stroke="#000" fill-opacity="0"/><use xlink:href="#a" transform="matrix(-1.8369701987210297e-16,-1,1,-1.8369701987210297e-16,45.98425196850394,-494.09448818897636) translate(22.055555555555543 34)"/><use xlink:href="#b" transform="matrix(-1.8369701987210297e-16,-1,1,-1.8369701987210297e-16,45.98425196850394,-494.09448818897636) translate(70.83333333333333 34)"/><use xlink:href="#c" transform="matrix(-1.8369701987210297e-16,-1,1,-1.8369701987210297e-16,45.98425196850394,-340) translate(8.166666666666657 34)"/><use xlink:href="#d" transform="matrix(-1.8369701987210297e-16,-1,1,-1.8369701987210297e-16,45.98425196850394,-140) translate(12.083333333333329 34)"/><use xlink:href="#e" transform="matrix(-1.8369701987210297e-16,-1,1,-1.8369701987210297e-16,45.98425196850394,-140) translate(68.19444444444443 34)"/><use xlink:href="#f" transform="matrix(-1.8369701987210297e-16,-1,1,-1.8369701987210297e-16,45.98425196850397,285.84514429005117) translate(92.7222222222222 34.5)"/><use xlink:href="#g" transform="matrix(-1.8369701987210297e-16,-1,1,-1.8369701987210297e-16,45.98425196850397,285.84514429005117) translate(219.11111111111111 34.5)"/><use xlink:href="#h" transform="matrix(-1.8369701987210297e-16,-1,1,-1.8369701987210297e-16,45.98425196850397,285.84514429005117) translate(239.05555555555557 34.5)"/><use xlink:href="#i" transform="matrix(-1.8369701987210297e-16,-1,1,-1.8369701987210297e-16,45.98425196850394,465.84514429005117) translate(35.722222222222214 34)"/><path d="M1200-625.14a6 6 0 0 1 6-6h101.4a6 6 0 0 1 6 6v68.96c-18.95-12.52-30.74-12.52-37.88-12.52-11.34 0-26.42 12.52-37.76 12.52-7.03 0-18.94 0-37.76-12.52z" stroke="#000" stroke-width="3" fill="#fff"/><path d="M1206.3-618.53a6 6 0 0 1 6-6h101.38a6 6 0 0 1 6 6v68.96c-18.93-12.5-30.72-12.5-37.87-12.5-11.32 0-26.4 12.5-37.74 12.5-7.03 0-18.94 0-37.76-12.5z" stroke="#000" stroke-width="3" fill="#fff"/><path d="M1212.6-611.9a6 6 0 0 1 6-6h101.38a6 6 0 0 1 6 6v68.95c-18.93-12.52-30.72-12.52-37.87-12.52-11.32 0-26.4 12.52-37.74 12.52-7.03 0-18.94 0-37.76-12.52z" stroke="#000" stroke-width="3" fill="#fff"/><use xlink:href="#j" transform="matrix(1,0,0,1,1217.5984251968505,-612.9133858267717) translate(23 29.25)"/><path d="M364.57-551.77c0 4.87-42.3 8.82-94.5 8.82-52.18 0-94.48-3.95-94.48-8.82v-70.55c0-4.87 42.3-8.82 94.48-8.82 52.18 0 94.5 3.95 94.5 8.82z" stroke="#000" stroke-width="3" fill="#fff"/><path d="M364.57-622.32c0 4.87-42.3 8.82-94.5 8.82-52.18 0-94.48-3.95-94.48-8.82" stroke="#000" stroke-width="3" fill="none"/><use xlink:href="#k" transform="matrix(1,0,0,1,180.5893773633116,-608.503937007874) translate(57.861111111111114 35.0625)"/><use xlink:href="#l" transform="matrix(1,0,0,1,180.5893773633116,-608.503937007874) translate(88.91666666666667 35.0625)"/><path d="M768.92-451.25a4.6 4.6 0 0 1 4.46-5.8h82.5a4.6 4.6 0 0 1 4.44 5.8l-18.24 68.4a7.8 7.8 0 0 1-7.55 5.8H794.7a7.8 7.8 0 0 1-7.54-5.8z" stroke="#000" stroke-width="3" fill-opacity="0"/><use xlink:href="#m" transform="matrix(1,0,0,1,772.3766269357593,-452.0472440944882) translate(15.949444444444444 40.40625)"/><path d="M767.38-278.1a6 6 0 0 1 6-6h82.5a6 6 0 0 1 6 6v76.2a6 6 0 0 1-6 6h-82.5a6 6 0 0 1-6-6z" stroke="#000" stroke-width="3" fill-opacity="0"/><use xlink:href="#n" transform="matrix(1,0,0,1,779.3766269357593,-272.09448818897636) translate(13.333333333333332 24.125)"/><use xlink:href="#o" transform="matrix(1,0,0,1,779.3766269357593,-272.09448818897636) translate(4.611111111111107 48.125)"/><path d="M864.87-240h36.55" stroke="#000" stroke-width="3" fill="none"/><path d="M864.9-238.5h-1.53v-3h1.53z" stroke="#000" stroke-width=".05"/><path d="M917.2-240l-14.28 4.63v-9.26z" stroke="#000" stroke-width="3"/><path d="M923.54-282a6 6 0 0 1 6-6h82.5a6 6 0 0 1 6 6v84a6 6 0 0 1-6 6h-82.5a6 6 0 0 1-6-6z" stroke="#000" stroke-width="3" fill-opacity="0"/><use xlink:href="#p" transform="matrix(1,0,0,1,935.5427829531802,-276) translate(13.166666666666664 18.25)"/><use xlink:href="#q" transform="matrix(1,0,0,1,935.5427829531802,-276) translate(23.52777777777778 42.25)"/><use xlink:href="#r" transform="matrix(1,0,0,1,935.5427829531802,-276) translate(8.333333333333336 66.25)"/><path d="M1021.03-240h394.33" stroke="#000" stroke-width="3" fill="none"/><path d="M1021.07-238.5h-1.54v-3h1.54z" stroke="#000" stroke-width=".05"/><path d="M1431.13-240l-14.27 4.63v-9.26z" stroke="#000" stroke-width="3"/><path d="M1531.97-204.72c0 4.87-21.15 8.8-47.25 8.8s-47.24-3.93-47.24-8.8v-70.56c0-4.87 21.15-8.8 47.24-8.8 26.1 0 47.25 3.93 47.25 8.8z" stroke="#000" stroke-width="3" fill="#6db1ff"/><path d="M1531.97-275.28c0 4.88-21.15 8.82-47.25 8.82s-47.24-3.94-47.24-8.82" stroke="#000" stroke-width="3" fill="none"/><use xlink:href="#s" transform="matrix(1,0,0,1,1442.48031496063,-261.4566929133858) translate(30.333333333333336 23.625)"/><use xlink:href="#t" transform="matrix(1,0,0,1,1442.48031496063,-261.4566929133858) translate(13.694444444444443 47.625)"/><path d="M155.88 120.64a6.82 6.82 0 0 1 5.95-6.76l102.76-13.12a5.28 5.28 0 0 1 5.94 5.24v76.2a6 6 0 0 1-6 6H161.87a6 6 0 0 1-6-6z" stroke="#000" stroke-width="3" fill="#fff"/><use xlink:href="#u" transform="matrix(1,0,0,1,160.8753083324585,119.69816272965876) translate(19.77777777777778 24)"/><use xlink:href="#v" transform="matrix(1,0,0,1,160.8753083324585,119.69816272965876) translate(4.749999999999993 48)"/><path d="M272.63 143.3l27.5-37.47" stroke="#000" stroke-width="2" fill="none"/><path d="M273.46 143.86l-1.42 1.92v-2.96z" stroke="#000" stroke-width=".05"/><path d="M309.16 93.52l-4.7 14.25-7.48-5.5z" stroke="#000" stroke-width="2"/><path d="M312.58 48.42a6 6 0 0 1 6-6h101.38a6 6 0 0 1 6 6v68.97c-18.93-12.53-30.72-12.53-37.87-12.53-11.35 0-26.43 12.52-37.77 12.52-7.03-.02-18.93-.02-37.75-12.53z" stroke="#000" stroke-width="3" fill="#fff"/><path d="M318.88 55.04a6 6 0 0 1 6-6h101.38a6 6 0 0 1 6 6V124c-18.93-12.52-30.73-12.52-37.87-12.52-11.35 0-26.43 12.52-37.77 12.52-7.03 0-18.93 0-37.75-12.52z" stroke="#000" stroke-width="3" fill="#fff"/><path d="M325.18 61.65a6 6 0 0 1 6-6h101.38a6 6 0 0 1 6 6v68.96c-18.94-12.5-30.73-12.5-37.87-12.5-11.35 0-26.43 12.5-37.77 12.5-7.03 0-18.93 0-37.75-12.5z" stroke="#000" stroke-width="3" fill="#fff"/><use xlink:href="#w" transform="matrix(1,0,0,1,330.1750503728556,60.65279621991433) translate(3.444444444444443 29.25)"/><use xlink:href="#x" transform="matrix(1,0,0,1,330.1750503728556,60.65279621991433) translate(53.66666666666667 29.25)"/><path d="M273.42 144.53l27.46 48.24M273.44 144.57l-.76-1.34" stroke="#000" stroke-width="3" fill="none"/><path d="M308.68 206.47l-11.1-10.1 8.07-4.6z" stroke="#000" stroke-width="3"/><path d="M312.58 172.6a6 6 0 0 1 6-6h101.38a6 6 0 0 1 6 6v68.95c-18.93-12.52-30.72-12.52-37.87-12.52-11.35 0-26.43 12.52-37.77 12.52-7.03 0-18.93 0-37.75-12.52z" stroke="#000" stroke-width="3" fill="#fff"/><path d="M318.88 179.2a6 6 0 0 1 6-6h101.38a6 6 0 0 1 6 6v68.97c-18.93-12.52-30.73-12.52-37.87-12.52-11.35 0-26.43 12.52-37.77 12.52-7.03 0-18.93 0-37.75-12.52z" stroke="#000" stroke-width="3" fill="#fff"/><path d="M325.18 185.82a6 6 0 0 1 6-6h101.38a6 6 0 0 1 6 6v68.96c-18.94-12.52-30.73-12.52-37.87-12.52-11.35 0-26.43 12.52-37.77 12.52-7.03 0-18.93 0-37.75-12.52z" stroke="#000" stroke-width="3" fill="#fff"/><use xlink:href="#y" transform="matrix(1,0,0,1,330.1750503728556,184.82122030382996) translate(7.4722222222222285 29.25)"/><use xlink:href="#x" transform="matrix(1,0,0,1,330.1750503728556,184.82122030382996) translate(49.63888888888889 29.25)"/><path d="M271.33-78.54a7.8 7.8 0 0 1 7.55-5.8h109.37a4.6 4.6 0 0 1 4.45 5.8l-20.43 76.6a7.8 7.8 0 0 1-7.54 5.8H255.36a4.6 4.6 0 0 1-4.45-5.8z" stroke="#000" stroke-width="3" fill-opacity="0"/><use xlink:href="#z" transform="matrix(1,0,0,1,254.36281949848058,-79.33759526464692) translate(18.116111111111103 43.15625)"/><path d="M545.98-79.9a6 6 0 0 1 6-6h82.5a6 6 0 0 1 6 6v76.18a6 6 0 0 1-6 6h-82.5a6 6 0 0 1-6-6z" stroke="#000" stroke-width="3" fill-opacity="0"/><use xlink:href="#A" transform="matrix(1,0,0,1,557.9842519685039,-73.91239840461688) translate(-3.3611111111111143 24.5)"/><use xlink:href="#B" transform="matrix(1,0,0,1,557.9842519685039,-73.91239840461688) translate(7.194444444444446 48.5)"/><use xlink:href="#C" transform="matrix(1,0,0,1,557.9842519685039,-73.91239840461688) translate(26.083333333333332 48.5)"/><path d="M328.32 338.06a6 6 0 0 1 6-6h82.5a6 6 0 0 1 6 6v76.2a6 6 0 0 1-6 6h-82.5a6 6 0 0 1-6-6z" stroke="#000" stroke-width="3" fill="#cfe4ff"/><use xlink:href="#D" transform="matrix(1,0,0,1,340.3246566720682,344.0614547474124) translate(10.527777777777779 24.125)"/><use xlink:href="#E" transform="matrix(1,0,0,1,340.3246566720682,344.0614547474124) translate(13.916666666666668 48.125)"/><path d="M425.8 376.16h970.66" stroke="#000" stroke-width="3" fill="none"/><path d="M425.85 377.66h-1.54v-3h1.55z" stroke="#000" stroke-width=".05"/><path d="M1412.23 376.16l-14.27 4.63v-9.28z" stroke="#000" stroke-width="3"/><path d="M1531.97 413.95c0 5.22-25.38 9.45-56.7 9.45-31.3 0-56.7-4.23-56.7-9.45v-75.6c0-5.2 25.4-9.44 56.7-9.44 31.32 0 56.7 4.24 56.7 9.46z" stroke="#000" stroke-width="3" fill="#1071e5"/><path d="M1531.97 338.36c0 5.22-25.38 9.45-56.7 9.45-31.3 0-56.7-4.22-56.7-9.44" stroke="#000" stroke-width="3" fill="none"/><use xlink:href="#F" transform="matrix(1,0,0,1,1423.5826771653544,352.8094862434754) translate(1.5833333333333286 24.25)"/><use xlink:href="#G" transform="matrix(1,0,0,1,1423.5826771653544,352.8094862434754) translate(17.08333333333333 48.25)"/><path d="M1427.95-78.54a7.8 7.8 0 0 1 7.55-5.8h121.96a4.6 4.6 0 0 1 4.46 5.8l-20.43 76.6a7.8 7.8 0 0 1-7.55 5.8h-121.97a4.6 4.6 0 0 1-4.45-5.8z" stroke="#000" stroke-width="3" fill="#ffe342"/><use xlink:href="#H" transform="matrix(1,0,0,1,1410.984251968504,-79.33759526464692) translate(27.699444444444445 30.8125)"/><use xlink:href="#I" transform="matrix(1,0,0,1,1410.984251968504,-79.33759526464692) translate(76.47722222222222 30.8125)"/><use xlink:href="#J" transform="matrix(1,0,0,1,1410.984251968504,-79.33759526464692) translate(22.83833333333333 54.8125)"/><path d="M988.96-80.11a7.8 7.8 0 0 1 7.54-5.8h121.96a4.6 4.6 0 0 1 4.46 5.8L1102.5-3.53a7.8 7.8 0 0 1-7.55 5.8H972.98a4.6 4.6 0 0 1-4.45-5.8z" stroke="#000" stroke-width="3" fill-opacity="0"/><use xlink:href="#K" transform="matrix(1,0,0,1,971.9842519685044,-80.91239840461688) translate(13.00499999999999 43.15625)"/><path d="M417.48-79.9a6 6 0 0 1 6-6h82.5a6 6 0 0 1 6 6v76.18a6 6 0 0 1-6 6h-82.5a6 6 0 0 1-6-6z" stroke="#000" stroke-width="3" fill="#cfe4ff"/><use xlink:href="#L" transform="matrix(1,0,0,1,429.4803149606297,-73.91239840461688) translate(10.527777777777779 24.125)"/><use xlink:href="#M" transform="matrix(1,0,0,1,429.4803149606297,-73.91239840461688) translate(13.916666666666668 48.125)"/><path d="M692.96-80.11a7.8 7.8 0 0 1 7.54-5.8h109.37a4.6 4.6 0 0 1 4.45 5.8L793.9-3.53a7.8 7.8 0 0 1-7.55 5.8H676.98a4.6 4.6 0 0 1-4.45-5.8z" stroke="#000" stroke-width="3" fill-opacity="0"/><use xlink:href="#N" transform="matrix(1,0,0,1,675.9842519685038,-80.91239840461688) translate(23.366111111111103 30.8125)"/><use xlink:href="#O" transform="matrix(1,0,0,1,675.9842519685038,-80.91239840461688) translate(100.97722222222222 30.8125)"/><use xlink:href="#P" transform="matrix(1,0,0,1,675.9842519685038,-80.91239840461688) translate(37.89388888888889 54.8125)"/><path d="M806.66-41.82h18.32" stroke="#000" stroke-width="2" fill="none"/><path d="M806.7-40.82h-1.3l.53-2h.76z" stroke="#000" stroke-width=".05"/><path d="M840.25-41.82l-14.27 4.64v-9.27z" stroke="#000" stroke-width="2"/><path d="M844.98-79.9a6 6 0 0 1 6-6h82.5a6 6 0 0 1 6 6v76.18a6 6 0 0 1-6 6h-82.5a6 6 0 0 1-6-6z" stroke="#000" stroke-width="3" fill-opacity="0"/><use xlink:href="#Q" transform="matrix(1,0,0,1,856.9842519685037,-73.91239840461688) translate(-4.416666666666671 36.5)"/><path d="M1148.98-78.34a6 6 0 0 1 6-6h82.5a6 6 0 0 1 6 6v76.2a6 6 0 0 1-6 6h-82.5a6 6 0 0 1-6-6z" stroke="#000" stroke-width="3" fill="#cfe4ff"/><use xlink:href="#L" transform="matrix(1,0,0,1,1160.984251968504,-72.33759526464692) translate(10.527777777777779 24.125)"/><use xlink:href="#M" transform="matrix(1,0,0,1,1160.984251968504,-72.33759526464692) translate(13.916666666666668 48.125)"/><path d="M941.97-41.82h16.72" stroke="#000" stroke-width="2" fill="none"/><path d="M942-40.82h-1.03v-2H942z" stroke="#000" stroke-width=".05"/><path d="M973.95-41.82l-14.26 4.64v-9.27z" stroke="#000" stroke-width="2"/><path d="M545.98 172.6a6 6 0 0 1 6-6h82.5a6 6 0 0 1 6 6v76.18a6 6 0 0 1-6 6h-82.5a6 6 0 0 1-6-6z" stroke="#000" stroke-width="3" fill="#cfe4ff"/><use xlink:href="#L" transform="matrix(1,0,0,1,557.9842519685039,178.59287384713704) translate(10.527777777777779 24.125)"/><use xlink:href="#M" transform="matrix(1,0,0,1,557.9842519685039,178.59287384713704) translate(13.916666666666668 48.125)"/><path d="M441.56 86.78h17.16a6 6 0 0 0 6-6V24.4" stroke="#000" stroke-width="3" fill="none"/><path d="M441.6 88.28h-1.54v-3h1.54z" stroke="#000" stroke-width=".05"/><path d="M464.72 8.63l4.64 14.27h-9.27z" stroke="#000" stroke-width="3"/><path d="M441.56 86.78h748.67a6 6 0 0 0 6-6v-54.8" stroke="#000" stroke-width="3" fill="none"/><path d="M441.6 88.28h-1.54v-3h1.54z" stroke="#000" stroke-width=".05"/><path d="M1196.23 10.2l4.63 14.27h-9.27z" stroke="#000" stroke-width="3"/><path d="M1484.72-192.9v24.3a6 6 0 0 1-6 6h-1008a6 6 0 0 0-6 6v48.57" stroke="#1071e5" stroke-width="3" fill="none"/><path d="M1484.72-194.4l1.5-.07v1.6h-3v-1.6z" stroke="#1071e5" stroke-width=".05" fill="#1071e5"/><path d="M464.72-92.27l-4.63-14.26h9.26z" stroke="#1071e5" stroke-width="3" fill="#1071e5"/><path d="M1484.72-192.9v24.3a6 6 0 0 1-6 6h-276.5a6 6 0 0 0-6 6v50.14" stroke="#1071e5" stroke-width="3" fill="none"/><path d="M1484.72-194.4l1.5-.07v1.6h-3v-1.6z" stroke="#1071e5" stroke-width=".05" fill="#1071e5"/><path d="M1196.23-90.7l-4.64-14.26h9.26z" stroke="#1071e5" stroke-width="3" fill="#1071e5"/><path d="M1484.72-192.9v24.3a6 6 0 0 1-6 6H327.8a6 6 0 0 0-6 6v50.14" stroke="#1071e5" stroke-width="3" fill="none"/><path d="M1484.72-194.4l1.5-.07v1.6h-3v-1.6z" stroke="#1071e5" stroke-width=".05" fill="#1071e5"/><path d="M321.8-90.7l-4.63-14.26h9.27z" stroke="#1071e5" stroke-width="3" fill="#1071e5"/><path d="M642.97-41.82H662.7" stroke="#000" stroke-width="2" fill="none"/><path d="M643-40.82h-1.03v-2H643z" stroke="#000" stroke-width=".05"/><path d="M677.95-41.82l-14.26 4.64v-9.27z" stroke="#000" stroke-width="2"/><path d="M514.47-41.82h11.5" stroke="#000" stroke-width="2" fill="none"/><path d="M514.5-40.82h-1.03v-2h1.02z" stroke="#000" stroke-width=".05"/><path d="M541.25-41.82l-14.27 4.64v-9.27z" stroke="#000" stroke-width="2"/><path d="M385.04-40.24h14" stroke="#000" stroke-width="2" fill="none"/><path d="M385.06-39.24h-1.3l.55-2h.76z" stroke="#000" stroke-width=".05"/><path d="M412.76-41.52l-13.78 5.94-.86-9.23z" stroke="#000" stroke-width="2"/><path d="M1281-78.34a6 6 0 0 1 6-6h82.48a6 6 0 0 1 6 6v76.2a6 6 0 0 1-6 6h-82.5a6 6 0 0 1-6-6z" stroke="#000" stroke-width="3" fill-opacity="0"/><use xlink:href="#A" transform="matrix(1,0,0,1,1292.9921259842517,-72.33759526464692) translate(-3.3611111111111143 24.5)"/><use xlink:href="#B" transform="matrix(1,0,0,1,1292.9921259842517,-72.33759526464692) translate(7.194444444444446 48.5)"/><use xlink:href="#C" transform="matrix(1,0,0,1,1292.9921259842517,-72.33759526464692) translate(26.083333333333332 48.5)"/><path d="M1115.26-41.82h15.1" stroke="#000" stroke-width="2" fill="none"/><path d="M1115.28-40.82h-1.3l.55-2h.75z" stroke="#000" stroke-width=".05"/><path d="M1144.26-42.93l-13.85 5.76-.73-9.24z" stroke="#000" stroke-width="2"/><path d="M1245.97-40.24H1261" stroke="#000" stroke-width="2" fill="none"/><path d="M1246-39.24h-1.03v-2h1.03z" stroke="#000" stroke-width=".05"/><path d="M1276.26-40.24L1262-35.6v-9.28z" stroke="#000" stroke-width="2"/><path d="M1416.2-40.24" stroke="#000" stroke-width="2" fill="none"/><path stroke="#000" stroke-width=".05"/><path d="M1412.95-40.24l-14.26 4.63v-9.28z" stroke="#000" stroke-width="2"/><path d="M1377.98-40.24H1397.68" stroke="#000" stroke-width="2" fill="none"/><path d="M1378-39.24H1377v-2h1.03z" stroke="#000" stroke-width=".05"/><path d="M1412.95-40.24l-14.26 4.63v-9.28z" stroke="#000" stroke-width="2"/><path d="M441.56 211H523.86" stroke="#000" stroke-width="3" fill="none"/><path d="M441.6 212.5h-1.54v-3h1.54z" stroke="#000" stroke-width=".05"/><path d="M539.63 211l-14.27 4.62v-9.27z" stroke="#000" stroke-width="3"/><path d="M725.98 172.6a6 6 0 0 1 6-6h82.5a6 6 0 0 1 6 6v76.18a6 6 0 0 1-6 6h-82.5a6 6 0 0 1-6-6z" stroke="#000" stroke-width="3" fill-opacity="0"/><use xlink:href="#R" transform="matrix(1,0,0,1,737.9842519685039,178.59287384713716) translate(-3.3611111111111143 36.5)"/><path d="M643.47 210.7h60.4" stroke="#000" stroke-width="3" fill="none"/><path d="M643.5 212.2h-1.53v-3h1.54z" stroke="#000" stroke-width=".05"/><path d="M719.63 210.7l-14.27 4.62v-9.27z" stroke="#000" stroke-width="3"/><path d="M1519.54 6.85V130.6a6 6 0 0 1-6 6H622.72a6 6 0 0 0-6 6v1.87" stroke="#000" stroke-width="3" fill="none"/><path d="M1521.04 6.9h-3V5.34h3z" stroke="#000" stroke-width=".05"/><path d="M616.72 160.24l-4.64-14.27h9.27z" stroke="#000" stroke-width="3"/><path d="M213.38 79.2v8.6" stroke="#000" stroke-width="2" fill="none"/><path d="M214.38 79.22h-2V78.2h2z" stroke="#000" stroke-width=".05"/><path d="M213 102.6l-4.26-14.37 9.26.24z" stroke="#000" stroke-width="2"/><path d="M175.6 26a6 6 0 0 1 6-6h63.58a6 6 0 0 1 6 6v44.7a6 6 0 0 1-6 6h-63.6a6 6 0 0 1-6-6z" stroke="#000" stroke-width="3" fill-opacity="0"/><use xlink:href="#S" transform="matrix(1,0,0,1,187.5893773633116,32.00000000000003) translate(-7.833333333333336 20.5)"/><path d="M1519.54 6.85V294a6 6 0 0 1-6 6H408a6 6 0 0 0-6 6v3.94" stroke="#000" stroke-width="3" fill="none"/><path d="M1521.04 6.9h-3V5.34h3z" stroke="#000" stroke-width=".05"/><path d="M402 325.7l-4.65-14.26h9.27z" stroke="#000" stroke-width="3"/><path d="M1421.73-625.14a6 6 0 0 1 6-6h101.4a6 6 0 0 1 6 6v68.96c-18.95-12.52-30.74-12.52-37.88-12.52-11.34 0-26.42 12.52-37.76 12.52-7.04 0-18.95 0-37.77-12.52z" stroke="#000" stroke-width="3" fill="#fff"/><path d="M1428.03-618.53a6 6 0 0 1 6-6h101.4a6 6 0 0 1 6 6v68.96c-18.95-12.5-30.74-12.5-37.88-12.5-11.34 0-26.42 12.5-37.76 12.5-7.04 0-18.95 0-37.77-12.5z" stroke="#000" stroke-width="3" fill="#fff"/><path d="M1434.33-611.9a6 6 0 0 1 6-6h101.4a6 6 0 0 1 6 6v68.95c-18.95-12.52-30.74-12.52-37.88-12.52-11.34 0-26.42 12.52-37.76 12.52-7.04 0-18.95 0-37.77-12.52z" stroke="#000" stroke-width="3" fill="#fff"/><use xlink:href="#T" transform="matrix(1,0,0,1,1439.3307086614175,-612.9133858267717) translate(3.749999999999993 30.5)"/><path d="M1241.55-451.25a4.6 4.6 0 0 1 4.45-5.8h118.6a4.6 4.6 0 0 1 4.47 5.8l-18.24 68.4a7.8 7.8 0 0 1-7.55 5.8h-75.95a7.8 7.8 0 0 1-7.54-5.8z" stroke="#000" stroke-width="3" fill-opacity="0"/><use xlink:href="#U" transform="matrix(1,0,0,1,1245,-452.0472440944882) translate(19.477222222222217 27.09375)"/><use xlink:href="#V" transform="matrix(1,0,0,1,1245,-452.0472440944882) translate(22.227222222222217 51.09375)"/><path d="M775-417.05H214a6 6 0 0 0-6 6V-2.12" stroke="#000" stroke-width="3" fill="none"/><path d="M776.9-415.55h-1.95v-3h1.14z" stroke="#000" stroke-width=".05"/><path d="M208.02 13.65L203.38-.62h9.27z" stroke="#000" stroke-width="3"/><path d="M1431.13-451.25a4.6 4.6 0 0 1 4.46-5.8h98.26a4.6 4.6 0 0 1 4.46 5.8l-18.25 68.4a7.8 7.8 0 0 1-7.54 5.8h-55.6a7.8 7.8 0 0 1-7.56-5.8z" stroke="#000" stroke-width="3" fill-opacity="0"/><g><use xlink:href="#W" transform="matrix(1,0,0,1,1434.5871327557306,-452.0472440944882) translate(10.977222222222219 40.0625)"/></g><path d="M1437.6-415.55h-37.48a.02.02 0 0 1 0-.02.02.02 0 0 0-.03-.02h-18.37" stroke="#000" stroke-width="3" fill="none"/><path d="M1439.5-414.05h-1.94v-3h1.14z" stroke="#000" stroke-width=".05"/><path d="M1365.96-415.6l14.27-4.62v9.27z" stroke="#000" stroke-width="3"/><path d="M367.57-587.05h810.3" stroke="#000" stroke-width="3" fill="none"/><path d="M367.6-585.55h-1.53v-3h1.53z" stroke="#000" stroke-width=".05"/><path d="M1193.65-587.05l-14.27 4.64v-9.28z" stroke="#000" stroke-width="3"/><path d="M1328.98-586.76h70.63" stroke="#000" stroke-width="3" fill="none"/><path d="M1329.02-585.26h-1.54v-3h1.54z" stroke="#000" stroke-width=".05"/><path d="M1415.38-586.76l-14.27 4.64v-9.27z" stroke="#000" stroke-width="3"/><path d="M1484.72-543.64v64.47" stroke="#000" stroke-width="3" fill="none"/><path d="M1486.22-543.6h-3v-.9l3-1.28z" stroke="#000" stroke-width=".05"/><path d="M1484.72-463.4l-4.63-14.27h9.26z" stroke="#000" stroke-width="3"/><path d="M1247.6-417.05H873.38" stroke="#000" stroke-width="3" fill="none"/><path d="M1249.5-415.55h-1.92v-3h1.13z" stroke="#000" stroke-width=".05"/><path d="M857.6-417.05l14.27-4.63v9.27z" stroke="#000" stroke-width="3"/><path d="M1263-543.64V-526a6 6 0 0 1-6 6H820.6a6 6 0 0 0-6 6v34.83" stroke="#000" stroke-width="3" fill="none"/><path d="M1264.5-543.6h-3v-.9l3-1.28z" stroke="#000" stroke-width=".05"/><path d="M814.62-463.4L810-477.67h9.26z" stroke="#000" stroke-width="3"/><path d="M814.62-374.55v70.45" stroke="#000" stroke-width="2" fill="none"/><path d="M815.62-374.52h-2v-1.03h2z" stroke="#000" stroke-width=".05"/><path d="M814.62-288.83L810-303.1h9.26z" stroke="#000" stroke-width="2"/><path d="M775-417.05H136a6 6 0 0 0-6 6v781.2a6 6 0 0 0 6 6h170.2" stroke="#000" stroke-width="3" fill="none"/><path d="M776.9-415.55h-1.95v-3h1.14z" stroke="#000" stroke-width=".05"/><path d="M321.97 376.16l-14.27 4.63v-9.28z" stroke="#000" stroke-width="3"/><defs><path fill="#333" d="M24-248c120-7 223 5 221 122C244-46 201 0 124 0H24v-248zM76-40c74 7 117-18 117-86 0-67-45-88-117-82v168" id="X"/><path fill="#333" d="M133-34C117-15 103 5 69 4 32 3 11-16 11-54c-1-60 55-63 116-61 1-26-3-47-28-47-18 1-26 9-28 27l-52-2c7-38 36-58 82-57s74 22 75 68l1 82c-1 14 12 18 25 15v27c-30 8-71 5-69-32zm-48 3c29 0 43-24 42-57-32 0-66-3-65 30 0 17 8 27 23 27" id="Y"/><path fill="#333" d="M115-3C79 11 28 4 28-45v-112H4v-33h27l15-45h31v45h36v33H77v99c-1 23 16 31 38 25v30" id="Z"/><g id="a"><use transform="matrix(0.05555555555555555,0,0,0.05555555555555555,0,0)" xlink:href="#X"/><use transform="matrix(0.05555555555555555,0,0,0.05555555555555555,14.388888888888888,0)" xlink:href="#Y"/><use transform="matrix(0.05555555555555555,0,0,0.05555555555555555,25.5,0)" xlink:href="#Z"/><use transform="matrix(0.05555555555555555,0,0,0.05555555555555555,32.111111111111114,0)" xlink:href="#Y"/></g><path fill="#333" d="M190-63c-7 42-38 67-86 67-59 0-84-38-90-98-12-110 154-137 174-36l-49 2c-2-19-15-32-35-32-30 0-35 28-38 64-6 74 65 87 74 30" id="aa"/><path fill="#333" d="M110-194c64 0 96 36 96 99 0 64-35 99-97 99-61 0-95-36-95-99 0-62 34-99 96-99zm-1 164c35 0 45-28 45-65 0-40-10-65-43-65-34 0-45 26-45 65 0 36 10 65 43 65" id="ab"/><path fill="#333" d="M25 0v-261h50V0H25" id="ac"/><path fill="#333" d="M185-48c-13 30-37 53-82 52C43 2 14-33 14-96s30-98 90-98c62 0 83 45 84 108H66c0 31 8 55 39 56 18 0 30-7 34-22zm-45-69c5-46-57-63-70-21-2 6-4 13-4 21h74" id="ad"/><path fill="#333" d="M25-224v-37h50v37H25zM25 0v-190h50V0H25" id="ae"/><path fill="#333" d="M135-194c87-1 58 113 63 194h-50c-7-57 23-157-34-157-59 0-34 97-39 157H25l-1-190h47c2 12-1 28 3 38 12-26 28-41 61-42" id="af"/><g id="b"><use transform="matrix(0.05555555555555555,0,0,0.05555555555555555,0,0)" xlink:href="#aa"/><use transform="matrix(0.05555555555555555,0,0,0.05555555555555555,11.11111111111111,0)" xlink:href="#ab"/><use transform="matrix(0.05555555555555555,0,0,0.05555555555555555,23.27777777777778,0)" xlink:href="#ac"/><use transform="matrix(0.05555555555555555,0,0,0.05555555555555555,28.83333333333334,0)" xlink:href="#ac"/><use transform="matrix(0.05555555555555555,0,0,0.05555555555555555,34.38888888888889,0)" xlink:href="#ad"/><use transform="matrix(0.05555555555555555,0,0,0.05555555555555555,45.5,0)" xlink:href="#aa"/><use transform="matrix(0.05555555555555555,0,0,0.05555555555555555,56.611111111111114,0)" xlink:href="#Z"/><use transform="matrix(0.05555555555555555,0,0,0.05555555555555555,63.22222222222223,0)" xlink:href="#ae"/><use transform="matrix(0.05555555555555555,0,0,0.05555555555555555,68.77777777777779,0)" xlink:href="#ab"/><use transform="matrix(0.05555555555555555,0,0,0.05555555555555555,80.94444444444446,0)" xlink:href="#af"/></g><path fill="#333" d="M24-248c93 1 206-16 204 79-1 75-69 88-152 82V0H24v-248zm52 121c47 0 100 7 100-41 0-47-54-39-100-39v80" id="ag"/><path fill="#333" d="M135-150c-39-12-60 13-60 57V0H25l-1-190h47c2 13-1 29 3 40 6-28 27-53 61-41v41" id="ah"/><path fill="#333" d="M135-194c53 0 70 44 70 98 0 56-19 98-73 100-31 1-45-17-59-34 3 33 2 69 2 105H25l-1-265h48c2 10 0 23 3 31 11-24 29-35 60-35zM114-30c33 0 39-31 40-66 0-38-9-64-40-64-56 0-55 130 0 130" id="ai"/><path fill="#333" d="M137-138c1-29-70-34-71-4 15 46 118 7 119 86 1 83-164 76-172 9l43-7c4 19 20 25 44 25 33 8 57-30 24-41C81-84 22-81 20-136c-2-80 154-74 161-7" id="aj"/><path fill="#333" d="M195-6C206 82 75 100 31 46c-4-6-6-13-8-21l49-6c3 16 16 24 34 25 40 0 42-37 40-79-11 22-30 35-61 35-53 0-70-43-70-97 0-56 18-96 73-97 30 0 46 14 59 34l2-30h47zm-90-29c32 0 41-27 41-63 0-35-9-62-40-62-32 0-39 29-40 63 0 36 9 62 39 62" id="ak"/><g id="c"><use transform="matrix(0.05555555555555555,0,0,0.05555555555555555,0,0)" xlink:href="#ag"/><use transform="matrix(0.05555555555555555,0,0,0.05555555555555555,13.333333333333332,0)" xlink:href="#ah"/><use transform="matrix(0.05555555555555555,0,0,0.05555555555555555,21.11111111111111,0)" xlink:href="#ad"/><use transform="matrix(0.05555555555555555,0,0,0.05555555555555555,32.22222222222222,0)" xlink:href="#ai"/><use transform="matrix(0.05555555555555555,0,0,0.05555555555555555,44.388888888888886,0)" xlink:href="#ah"/><use transform="matrix(0.05555555555555555,0,0,0.05555555555555555,52.166666666666664,0)" xlink:href="#ab"/><use transform="matrix(0.05555555555555555,0,0,0.05555555555555555,64.33333333333333,0)" xlink:href="#aa"/><use transform="matrix(0.05555555555555555,0,0,0.05555555555555555,75.44444444444444,0)" xlink:href="#ad"/><use transform="matrix(0.05555555555555555,0,0,0.05555555555555555,86.55555555555556,0)" xlink:href="#aj"/><use transform="matrix(0.05555555555555555,0,0,0.05555555555555555,97.66666666666667,0)" xlink:href="#aj"/><use transform="matrix(0.05555555555555555,0,0,0.05555555555555555,108.77777777777779,0)" xlink:href="#ae"/><use transform="matrix(0.05555555555555555,0,0,0.05555555555555555,114.33333333333336,0)" xlink:href="#af"/><use transform="matrix(0.05555555555555555,0,0,0.05555555555555555,126.50000000000001,0)" xlink:href="#ak"/></g><path fill="#333" d="M275 0h-61l-44-196L126 0H64L0-248h53L97-49l45-199h58l43 199 44-199h52" id="al"/><path fill="#333" d="M88-194c31-1 46 15 58 34l-1-101h50l1 261h-48c-2-10 0-23-3-31C134-8 116 4 84 4 32 4 16-41 15-95c0-56 19-97 73-99zm17 164c33 0 40-30 41-66 1-37-9-64-41-64s-38 30-39 65c0 43 13 65 39 65" id="am"/><g id="d"><use transform="matrix(0.05555555555555555,0,0,0.05555555555555555,0,0)" xlink:href="#al"/><use transform="matrix(0.05555555555555555,0,0,0.05555555555555555,18.444444444444443,0)" xlink:href="#ab"/><use transform="matrix(0.05555555555555555,0,0,0.05555555555555555,30.61111111111111,0)" xlink:href="#ah"/><use transform="matrix(0.05555555555555555,0,0,0.05555555555555555,38.388888888888886,0)" xlink:href="#am"/></g><path fill="#333" d="M24 0v-248h195v40H76v63h132v40H76v65h150V0H24" id="an"/><path fill="#333" d="M220-157c-53 9-28 100-34 157h-49v-107c1-27-5-49-29-50C55-147 81-57 75 0H25l-1-190h47c2 12-1 28 3 38 10-53 101-56 108 0 13-22 24-43 59-42 82 1 51 116 57 194h-49v-107c-1-25-5-48-29-50" id="ao"/><path fill="#333" d="M135-194c52 0 70 43 70 98 0 56-19 99-73 100-30 1-46-15-58-35L72 0H24l1-261h50v104c11-23 29-37 60-37zM114-30c31 0 40-27 40-66 0-37-7-63-39-63s-41 28-41 65c0 36 8 64 40 64" id="ap"/><g id="e"><use transform="matrix(0.05555555555555555,0,0,0.05555555555555555,0,0)" xlink:href="#an"/><use transform="matrix(0.05555555555555555,0,0,0.05555555555555555,13.333333333333332,0)" xlink:href="#ao"/><use transform="matrix(0.05555555555555555,0,0,0.05555555555555555,31.11111111111111,0)" xlink:href="#ap"/><use transform="matrix(0.05555555555555555,0,0,0.05555555555555555,43.27777777777778,0)" xlink:href="#ad"/><use transform="matrix(0.05555555555555555,0,0,0.05555555555555555,54.388888888888886,0)" xlink:href="#am"/><use transform="matrix(0.05555555555555555,0,0,0.05555555555555555,66.55555555555556,0)" xlink:href="#am"/><use transform="matrix(0.05555555555555555,0,0,0.05555555555555555,78.72222222222223,0)" xlink:href="#ae"/><use transform="matrix(0.05555555555555555,0,0,0.05555555555555555,84.27777777777779,0)" xlink:href="#af"/><use transform="matrix(0.05555555555555555,0,0,0.05555555555555555,96.44444444444446,0)" xlink:href="#ak"/><use transform="matrix(0.05555555555555555,0,0,0.05555555555555555,108.61111111111113,0)" xlink:href="#aj"/></g><path fill="#333" d="M140-251c80 0 125 45 125 126S219 4 139 4C58 4 15-44 15-125s44-126 125-126zm-1 214c52 0 73-35 73-88 0-50-21-86-72-86-52 0-73 35-73 86s22 88 72 88" id="aq"/><path fill="#333" d="M12 0v-35l95-120H19v-35h142v35L67-36h103V0H12" id="ar"/><g id="f"><use transform="matrix(0.05555555555555555,0,0,0.05555555555555555,0,0)" xlink:href="#aq"/><use transform="matrix(0.05555555555555555,0,0,0.05555555555555555,15.555555555555555,0)" xlink:href="#ai"/><use transform="matrix(0.05555555555555555,0,0,0.05555555555555555,27.72222222222222,0)" xlink:href="#Z"/><use transform="matrix(0.05555555555555555,0,0,0.05555555555555555,34.33333333333333,0)" xlink:href="#ae"/><use transform="matrix(0.05555555555555555,0,0,0.05555555555555555,39.888888888888886,0)" xlink:href="#ao"/><use transform="matrix(0.05555555555555555,0,0,0.05555555555555555,57.666666666666664,0)" xlink:href="#ae"/><use transform="matrix(0.05555555555555555,0,0,0.05555555555555555,63.22222222222222,0)" xlink:href="#ar"/><use transform="matrix(0.05555555555555555,0,0,0.05555555555555555,73.22222222222223,0)" xlink:href="#Y"/><use transform="matrix(0.05555555555555555,0,0,0.05555555555555555,84.33333333333334,0)" xlink:href="#Z"/><use transform="matrix(0.05555555555555555,0,0,0.05555555555555555,90.94444444444446,0)" xlink:href="#ae"/><use transform="matrix(0.05555555555555555,0,0,0.05555555555555555,96.50000000000001,0)" xlink:href="#ab"/><use transform="matrix(0.05555555555555555,0,0,0.05555555555555555,108.66666666666669,0)" xlink:href="#af"/></g><path fill="#333" d="M168-19C124 19 11 11 16-68c3-43 29-60 59-75-25-44-12-111 53-106 37 3 64 15 64 52 0 43-40 52-69 68 12 22 27 41 43 59 14-19 21-38 28-64l37 13c-8 29-19 52-34 74 12 10 32 16 52 10v35c-28 11-65-2-81-17zm-58-139c19-9 43-14 43-39 0-14-10-22-25-22-34 0-33 41-18 61zM60-68c-3 40 55 47 79 25-18-20-34-42-48-67-18 8-30 20-31 42" id="as"/><use transform="matrix(0.05555555555555555,0,0,0.05555555555555555,0,0)" xlink:href="#as" id="g"/><path fill="#333" d="M147 0H94L2-248h55l64 206c17-72 42-137 63-206h54" id="at"/><g id="h"><use transform="matrix(0.05555555555555555,0,0,0.05555555555555555,0,0)" xlink:href="#at"/><use transform="matrix(0.05555555555555555,0,0,0.05555555555555555,12.222222222222221,0)" xlink:href="#Y"/><use transform="matrix(0.05555555555555555,0,0,0.05555555555555555,23.333333333333332,0)" xlink:href="#ac"/><use transform="matrix(0.05555555555555555,0,0,0.05555555555555555,28.888888888888886,0)" xlink:href="#ae"/><use transform="matrix(0.05555555555555555,0,0,0.05555555555555555,34.44444444444444,0)" xlink:href="#am"/><use transform="matrix(0.05555555555555555,0,0,0.05555555555555555,46.61111111111111,0)" xlink:href="#Y"/><use transform="matrix(0.05555555555555555,0,0,0.05555555555555555,57.72222222222222,0)" xlink:href="#Z"/><use transform="matrix(0.05555555555555555,0,0,0.05555555555555555,64.33333333333333,0)" xlink:href="#ae"/><use transform="matrix(0.05555555555555555,0,0,0.05555555555555555,69.88888888888889,0)" xlink:href="#ab"/><use transform="matrix(0.05555555555555555,0,0,0.05555555555555555,82.05555555555556,0)" xlink:href="#af"/></g><path fill="#fff" d="M199 0l-22-63H83L61 0H9l90-248h61L250 0h-51zm-33-102l-36-108c-10 38-24 72-36 108h72" id="au"/><path fill="#fff" d="M135-194c53 0 70 44 70 98 0 56-19 98-73 100-31 1-45-17-59-34 3 33 2 69 2 105H25l-1-265h48c2 10 0 23 3 31 11-24 29-35 60-35zM114-30c33 0 39-31 40-66 0-38-9-64-40-64-56 0-55 130 0 130" id="av"/><path fill="#fff" d="M25 0v-261h50V0H25" id="aw"/><path fill="#fff" d="M25-224v-37h50v37H25zM25 0v-190h50V0H25" id="ax"/><path fill="#fff" d="M190-63c-7 42-38 67-86 67-59 0-84-38-90-98-12-110 154-137 174-36l-49 2c-2-19-15-32-35-32-30 0-35 28-38 64-6 74 65 87 74 30" id="ay"/><path fill="#fff" d="M133-34C117-15 103 5 69 4 32 3 11-16 11-54c-1-60 55-63 116-61 1-26-3-47-28-47-18 1-26 9-28 27l-52-2c7-38 36-58 82-57s74 22 75 68l1 82c-1 14 12 18 25 15v27c-30 8-71 5-69-32zm-48 3c29 0 43-24 42-57-32 0-66-3-65 30 0 17 8 27 23 27" id="az"/><path fill="#fff" d="M115-3C79 11 28 4 28-45v-112H4v-33h27l15-45h31v45h36v33H77v99c-1 23 16 31 38 25v30" id="aA"/><path fill="#fff" d="M110-194c64 0 96 36 96 99 0 64-35 99-97 99-61 0-95-36-95-99 0-62 34-99 96-99zm-1 164c35 0 45-28 45-65 0-40-10-65-43-65-34 0-45 26-45 65 0 36 10 65 43 65" id="aB"/><path fill="#fff" d="M135-194c87-1 58 113 63 194h-50c-7-57 23-157-34-157-59 0-34 97-39 157H25l-1-190h47c2 12-1 28 3 38 12-26 28-41 61-42" id="aC"/><g id="i"><use transform="matrix(0.05555555555555555,0,0,0.05555555555555555,0,0)" xlink:href="#au"/><use transform="matrix(0.05555555555555555,0,0,0.05555555555555555,14.388888888888888,0)" xlink:href="#av"/><use transform="matrix(0.05555555555555555,0,0,0.05555555555555555,26.555555555555554,0)" xlink:href="#av"/><use transform="matrix(0.05555555555555555,0,0,0.05555555555555555,38.72222222222222,0)" xlink:href="#aw"/><use transform="matrix(0.05555555555555555,0,0,0.05555555555555555,44.27777777777778,0)" xlink:href="#ax"/><use transform="matrix(0.05555555555555555,0,0,0.05555555555555555,49.833333333333336,0)" xlink:href="#ay"/><use transform="matrix(0.05555555555555555,0,0,0.05555555555555555,60.94444444444444,0)" xlink:href="#az"/><use transform="matrix(0.05555555555555555,0,0,0.05555555555555555,72.05555555555556,0)" xlink:href="#aA"/><use transform="matrix(0.05555555555555555,0,0,0.05555555555555555,78.66666666666667,0)" xlink:href="#ax"/><use transform="matrix(0.05555555555555555,0,0,0.05555555555555555,84.22222222222223,0)" xlink:href="#aB"/><use transform="matrix(0.05555555555555555,0,0,0.05555555555555555,96.3888888888889,0)" xlink:href="#aC"/></g><path fill="#333" d="M30-248c87 1 191-15 191 75 0 78-77 80-158 76V0H30v-248zm33 125c57 0 124 11 124-50 0-59-68-47-124-48v98" id="aD"/><path fill="#333" d="M100-194c62-1 85 37 85 99 1 63-27 99-86 99S16-35 15-95c0-66 28-99 85-99zM99-20c44 1 53-31 53-75 0-43-8-75-51-75s-53 32-53 75 10 74 51 75" id="aE"/><path fill="#333" d="M135-143c-3-34-86-38-87 0 15 53 115 12 119 90S17 21 10-45l28-5c4 36 97 45 98 0-10-56-113-15-118-90-4-57 82-63 122-42 12 7 21 19 24 35" id="aF"/><path fill="#333" d="M59-47c-2 24 18 29 38 22v24C64 9 27 4 27-40v-127H5v-23h24l9-43h21v43h35v23H59v120" id="aG"/><g id="j"><use transform="matrix(0.05555555555555555,0,0,0.05555555555555555,0,0)" xlink:href="#aD"/><use transform="matrix(0.05555555555555555,0,0,0.05555555555555555,13.333333333333332,0)" xlink:href="#aE"/><use transform="matrix(0.05555555555555555,0,0,0.05555555555555555,24.444444444444443,0)" xlink:href="#aF"/><use transform="matrix(0.05555555555555555,0,0,0.05555555555555555,34.44444444444444,0)" xlink:href="#aG"/><use transform="matrix(0.05555555555555555,0,0,0.05555555555555555,40,0)" xlink:href="#aF"/></g><path fill="#333" d="M63-220v92h138v28H63V0H30v-248h175v28H63" id="aH"/><path fill="#333" d="M160-131c35 5 61 23 61 61C221 17 115-2 30 0v-248c76 3 177-17 177 60 0 33-19 50-47 57zm-97-11c50-1 110 9 110-42 0-47-63-36-110-37v79zm0 115c55-2 124 14 124-45 0-56-70-42-124-44v89" id="aI"/><g id="k"><use transform="matrix(0.05555555555555555,0,0,0.05555555555555555,0,0)" xlink:href="#aH"/><use transform="matrix(0.05555555555555555,0,0,0.05555555555555555,12.166666666666666,0)" xlink:href="#aI"/></g><path fill="#333" d="M205 0l-28-72H64L36 0H1l101-248h38L239 0h-34zm-38-99l-47-123c-12 45-31 82-46 123h93" id="aJ"/><path fill="#333" d="M33 0v-248h34V0H33" id="aK"/><g id="l"><use transform="matrix(0.05555555555555555,0,0,0.05555555555555555,0,0)" xlink:href="#aJ"/><use transform="matrix(0.05555555555555555,0,0,0.05555555555555555,13.333333333333332,0)" xlink:href="#aD"/><use transform="matrix(0.05555555555555555,0,0,0.05555555555555555,26.666666666666664,0)" xlink:href="#aK"/></g><path fill="#333" d="M212-179c-10-28-35-45-73-45-59 0-87 40-87 99 0 60 29 101 89 101 43 0 62-24 78-52l27 14C228-24 195 4 139 4 59 4 22-46 18-125c-6-104 99-153 187-111 19 9 31 26 39 46" id="aL"/><path fill="#333" d="M24 0v-261h32V0H24" id="aM"/><path fill="#333" d="M100-194c63 0 86 42 84 106H49c0 40 14 67 53 68 26 1 43-12 49-29l28 8c-11 28-37 45-77 45C44 4 14-33 15-96c1-61 26-98 85-98zm52 81c6-60-76-77-97-28-3 7-6 17-6 28h103" id="aN"/><path fill="#333" d="M141-36C126-15 110 5 73 4 37 3 15-17 15-53c-1-64 63-63 125-63 3-35-9-54-41-54-24 1-41 7-42 31l-33-3c5-37 33-52 76-52 45 0 72 20 72 64v82c-1 20 7 32 28 27v20c-31 9-61-2-59-35zM48-53c0 20 12 33 32 33 41-3 63-29 60-74-43 2-92-5-92 41" id="aO"/><path fill="#333" d="M117-194c89-4 53 116 60 194h-32v-121c0-31-8-49-39-48C34-167 62-67 57 0H25l-1-190h30c1 10-1 24 2 32 11-22 29-35 61-36" id="aP"/><g id="m"><use transform="matrix(0.05555555555555555,0,0,0.05555555555555555,0,0)" xlink:href="#aL"/><use transform="matrix(0.05555555555555555,0,0,0.05555555555555555,14.388888888888888,0)" xlink:href="#aM"/><use transform="matrix(0.05555555555555555,0,0,0.05555555555555555,18.777777777777775,0)" xlink:href="#aN"/><use transform="matrix(0.05555555555555555,0,0,0.05555555555555555,29.888888888888886,0)" xlink:href="#aO"/><use transform="matrix(0.05555555555555555,0,0,0.05555555555555555,41,0)" xlink:href="#aP"/></g><path fill="#333" d="M185-189c-5-48-123-54-124 2 14 75 158 14 163 119 3 78-121 87-175 55-17-10-28-26-33-46l33-7c5 56 141 63 141-1 0-78-155-14-162-118-5-82 145-84 179-34 5 7 8 16 11 25" id="aQ"/><path fill="#333" d="M115-194c55 1 70 41 70 98S169 2 115 4C84 4 66-9 55-30l1 105H24l-1-265h31l2 30c10-21 28-34 59-34zm-8 174c40 0 45-34 45-75s-6-73-45-74c-42 0-51 32-51 76 0 43 10 73 51 73" id="aR"/><path fill="#333" d="M24-231v-30h32v30H24zM24 0v-190h32V0H24" id="aS"/><path fill="#333" d="M68-38c1 34 0 65-14 84H32c9-13 17-26 17-46H33v-38h35" id="aT"/><g id="n"><use transform="matrix(0.05555555555555555,0,0,0.05555555555555555,0,0)" xlink:href="#aQ"/><use transform="matrix(0.05555555555555555,0,0,0.05555555555555555,13.333333333333332,0)" xlink:href="#aR"/><use transform="matrix(0.05555555555555555,0,0,0.05555555555555555,24.444444444444443,0)" xlink:href="#aM"/><use transform="matrix(0.05555555555555555,0,0,0.05555555555555555,28.833333333333332,0)" xlink:href="#aS"/><use transform="matrix(0.05555555555555555,0,0,0.05555555555555555,33.22222222222222,0)" xlink:href="#aG"/><use transform="matrix(0.05555555555555555,0,0,0.05555555555555555,38.77777777777778,0)" xlink:href="#aT"/></g><path fill="#333" d="M106-169C34-169 62-67 57 0H25v-261h32l-1 103c12-21 28-36 61-36 89 0 53 116 60 194h-32v-121c2-32-8-49-39-48" id="aU"/><path fill="#333" d="M84 4C-5 8 30-112 23-190h32v120c0 31 7 50 39 49 72-2 45-101 50-169h31l1 190h-30c-1-10 1-25-2-33-11 22-28 36-60 37" id="aV"/><path fill="#333" d="M101-234c-31-9-42 10-38 44h38v23H63V0H32v-167H5v-23h27c-7-52 17-82 69-68v24" id="aW"/><g id="o"><use transform="matrix(0.05555555555555555,0,0,0.05555555555555555,0,0)" xlink:href="#aQ"/><use transform="matrix(0.05555555555555555,0,0,0.05555555555555555,13.333333333333332,0)" xlink:href="#aU"/><use transform="matrix(0.05555555555555555,0,0,0.05555555555555555,24.444444444444443,0)" xlink:href="#aV"/><use transform="matrix(0.05555555555555555,0,0,0.05555555555555555,35.55555555555556,0)" xlink:href="#aW"/><use transform="matrix(0.05555555555555555,0,0,0.05555555555555555,40.72222222222223,0)" xlink:href="#aW"/><use transform="matrix(0.05555555555555555,0,0,0.05555555555555555,46.277777777777786,0)" xlink:href="#aM"/><use transform="matrix(0.05555555555555555,0,0,0.05555555555555555,50.66666666666667,0)" xlink:href="#aN"/></g><path fill="#333" d="M127-220V0H93v-220H8v-28h204v28h-85" id="aX"/><path fill="#333" d="M114-163C36-179 61-72 57 0H25l-1-190h30c1 12-1 29 2 39 6-27 23-49 58-41v29" id="aY"/><g id="p"><use transform="matrix(0.05555555555555555,0,0,0.05555555555555555,0,0)" xlink:href="#aX"/><use transform="matrix(0.05555555555555555,0,0,0.05555555555555555,11.444444444444445,0)" xlink:href="#aY"/><use transform="matrix(0.05555555555555555,0,0,0.05555555555555555,18.055555555555557,0)" xlink:href="#aO"/><use transform="matrix(0.05555555555555555,0,0,0.05555555555555555,29.166666666666664,0)" xlink:href="#aS"/><use transform="matrix(0.05555555555555555,0,0,0.05555555555555555,33.55555555555556,0)" xlink:href="#aP"/></g><g id="q"><use transform="matrix(0.05555555555555555,0,0,0.05555555555555555,0,0)" xlink:href="#aH"/><use transform="matrix(0.05555555555555555,0,0,0.05555555555555555,12.166666666666666,0)" xlink:href="#aX"/></g><path fill="#333" d="M240 0l2-218c-23 76-54 145-80 218h-23L58-218 59 0H30v-248h44l77 211c21-75 51-140 76-211h43V0h-30" id="aZ"/><path fill="#333" d="M85-194c31 0 48 13 60 33l-1-100h32l1 261h-30c-2-10 0-23-3-31C134-8 116 4 85 4 32 4 16-35 15-94c0-66 23-100 70-100zm9 24c-40 0-46 34-46 75 0 40 6 74 45 74 42 0 51-32 51-76 0-42-9-74-50-73" id="ba"/><g id="r"><use transform="matrix(0.05555555555555555,0,0,0.05555555555555555,0,0)" xlink:href="#aZ"/><use transform="matrix(0.05555555555555555,0,0,0.05555555555555555,16.61111111111111,0)" xlink:href="#aE"/><use transform="matrix(0.05555555555555555,0,0,0.05555555555555555,27.72222222222222,0)" xlink:href="#ba"/><use transform="matrix(0.05555555555555555,0,0,0.05555555555555555,38.83333333333333,0)" xlink:href="#aN"/><use transform="matrix(0.05555555555555555,0,0,0.05555555555555555,49.94444444444444,0)" xlink:href="#aM"/></g><path d="M76-208v77h127v40H76V0H24v-248h183v40H76" id="bb"/><path d="M136-208V0H84v-208H4v-40h212v40h-80" id="bc"/><g id="s"><use transform="matrix(0.05555555555555555,0,0,0.05555555555555555,0,0)" xlink:href="#bb"/><use transform="matrix(0.05555555555555555,0,0,0.05555555555555555,12.166666666666666,0)" xlink:href="#bc"/></g><path d="M230 0l2-204L168 0h-37L68-204 70 0H24v-248h70l56 185 57-185h69V0h-46" id="bd"/><path d="M110-194c64 0 96 36 96 99 0 64-35 99-97 99-61 0-95-36-95-99 0-62 34-99 96-99zm-1 164c35 0 45-28 45-65 0-40-10-65-43-65-34 0-45 26-45 65 0 36 10 65 43 65" id="be"/><path d="M88-194c31-1 46 15 58 34l-1-101h50l1 261h-48c-2-10 0-23-3-31C134-8 116 4 84 4 32 4 16-41 15-95c0-56 19-97 73-99zm17 164c33 0 40-30 41-66 1-37-9-64-41-64s-38 30-39 65c0 43 13 65 39 65" id="bf"/><path d="M185-48c-13 30-37 53-82 52C43 2 14-33 14-96s30-98 90-98c62 0 83 45 84 108H66c0 31 8 55 39 56 18 0 30-7 34-22zm-45-69c5-46-57-63-70-21-2 6-4 13-4 21h74" id="bg"/><path d="M25 0v-261h50V0H25" id="bh"/><g id="t"><use transform="matrix(0.05555555555555555,0,0,0.05555555555555555,0,0)" xlink:href="#bd"/><use transform="matrix(0.05555555555555555,0,0,0.05555555555555555,16.61111111111111,0)" xlink:href="#be"/><use transform="matrix(0.05555555555555555,0,0,0.05555555555555555,28.777777777777775,0)" xlink:href="#bf"/><use transform="matrix(0.05555555555555555,0,0,0.05555555555555555,40.94444444444444,0)" xlink:href="#bg"/><use transform="matrix(0.05555555555555555,0,0,0.05555555555555555,52.05555555555556,0)" xlink:href="#bh"/></g><g id="u"><use transform="matrix(0.05555555555555555,0,0,0.05555555555555555,0,0)" xlink:href="#aZ"/><use transform="matrix(0.05555555555555555,0,0,0.05555555555555555,16.61111111111111,0)" xlink:href="#aO"/><use transform="matrix(0.05555555555555555,0,0,0.05555555555555555,27.72222222222222,0)" xlink:href="#aP"/><use transform="matrix(0.05555555555555555,0,0,0.05555555555555555,38.83333333333333,0)" xlink:href="#aV"/><use transform="matrix(0.05555555555555555,0,0,0.05555555555555555,49.94444444444444,0)" xlink:href="#aO"/><use transform="matrix(0.05555555555555555,0,0,0.05555555555555555,61.05555555555555,0)" xlink:href="#aM"/></g><g id="v"><use transform="matrix(0.05555555555555555,0,0,0.05555555555555555,0,0)" xlink:href="#aJ"/><use transform="matrix(0.05555555555555555,0,0,0.05555555555555555,13.333333333333332,0)" xlink:href="#aP"/><use transform="matrix(0.05555555555555555,0,0,0.05555555555555555,24.444444444444443,0)" xlink:href="#aP"/><use transform="matrix(0.05555555555555555,0,0,0.05555555555555555,35.55555555555556,0)" xlink:href="#aE"/><use transform="matrix(0.05555555555555555,0,0,0.05555555555555555,46.66666666666667,0)" xlink:href="#aG"/><use transform="matrix(0.05555555555555555,0,0,0.05555555555555555,52.22222222222223,0)" xlink:href="#aO"/><use transform="matrix(0.05555555555555555,0,0,0.05555555555555555,63.33333333333334,0)" xlink:href="#aG"/><use transform="matrix(0.05555555555555555,0,0,0.05555555555555555,68.8888888888889,0)" xlink:href="#aS"/><use transform="matrix(0.05555555555555555,0,0,0.05555555555555555,73.27777777777779,0)" xlink:href="#aE"/><use transform="matrix(0.05555555555555555,0,0,0.05555555555555555,84.3888888888889,0)" xlink:href="#aP"/></g><g id="w"><use transform="matrix(0.05555555555555555,0,0,0.05555555555555555,0,0)" xlink:href="#aX"/><use transform="matrix(0.05555555555555555,0,0,0.05555555555555555,11.444444444444445,0)" xlink:href="#aY"/><use transform="matrix(0.05555555555555555,0,0,0.05555555555555555,18.055555555555557,0)" xlink:href="#aO"/><use transform="matrix(0.05555555555555555,0,0,0.05555555555555555,29.166666666666664,0)" xlink:href="#aS"/><use transform="matrix(0.05555555555555555,0,0,0.05555555555555555,33.55555555555556,0)" xlink:href="#aP"/></g><g id="x"><use transform="matrix(0.05555555555555555,0,0,0.05555555555555555,0,0)" xlink:href="#ba"/><use transform="matrix(0.05555555555555555,0,0,0.05555555555555555,11.11111111111111,0)" xlink:href="#aO"/><use transform="matrix(0.05555555555555555,0,0,0.05555555555555555,22.22222222222222,0)" xlink:href="#aG"/><use transform="matrix(0.05555555555555555,0,0,0.05555555555555555,27.77777777777778,0)" xlink:href="#aO"/></g><g id="y"><use transform="matrix(0.05555555555555555,0,0,0.05555555555555555,0,0)" xlink:href="#aX"/><use transform="matrix(0.05555555555555555,0,0,0.05555555555555555,9.944444444444443,0)" xlink:href="#aN"/><use transform="matrix(0.05555555555555555,0,0,0.05555555555555555,21.055555555555554,0)" xlink:href="#aF"/><use transform="matrix(0.05555555555555555,0,0,0.05555555555555555,31.055555555555554,0)" xlink:href="#aG"/></g><path fill="#333" d="M137 0h-34L2-248h35l83 218 83-218h36" id="bi"/><path fill="#333" d="M96-169c-40 0-48 33-48 73s9 75 48 75c24 0 41-14 43-38l32 2c-6 37-31 61-74 61-59 0-76-41-82-99-10-93 101-131 147-64 4 7 5 14 7 22l-32 3c-4-21-16-35-41-35" id="bj"/><path fill="#333" d="M115-194c53 0 69 39 70 98 0 66-23 100-70 100C84 3 66-7 56-30L54 0H23l1-261h32v101c10-23 28-34 59-34zm-8 174c40 0 45-34 45-75 0-40-5-75-45-74-42 0-51 32-51 76 0 43 10 73 51 73" id="bk"/><path fill="#333" d="M179-190L93 31C79 59 56 82 12 73V49c39 6 53-20 64-50L1-190h34L92-34l54-156h33" id="bl"/><g id="z"><use transform="matrix(0.05555555555555555,0,0,0.05555555555555555,0,0)" xlink:href="#bi"/><use transform="matrix(0.05555555555555555,0,0,0.05555555555555555,12.222222222222221,0)" xlink:href="#aE"/><use transform="matrix(0.05555555555555555,0,0,0.05555555555555555,23.333333333333332,0)" xlink:href="#bj"/><use transform="matrix(0.05555555555555555,0,0,0.05555555555555555,33.33333333333333,0)" xlink:href="#aO"/><use transform="matrix(0.05555555555555555,0,0,0.05555555555555555,44.44444444444444,0)" xlink:href="#bk"/><use transform="matrix(0.05555555555555555,0,0,0.05555555555555555,55.55555555555556,0)" xlink:href="#aV"/><use transform="matrix(0.05555555555555555,0,0,0.05555555555555555,66.66666666666667,0)" xlink:href="#aM"/><use transform="matrix(0.05555555555555555,0,0,0.05555555555555555,71.05555555555556,0)" xlink:href="#aO"/><use transform="matrix(0.05555555555555555,0,0,0.05555555555555555,82.16666666666667,0)" xlink:href="#aY"/><use transform="matrix(0.05555555555555555,0,0,0.05555555555555555,88.77777777777779,0)" xlink:href="#bl"/></g><path fill="#333" d="M30 0v-248h187v28H63v79h144v27H63v87h162V0H30" id="bm"/><path fill="#333" d="M108 0H70L1-190h34L89-25l56-165h34" id="bn"/><g id="A"><use transform="matrix(0.05555555555555555,0,0,0.05555555555555555,0,0)" xlink:href="#bm"/><use transform="matrix(0.05555555555555555,0,0,0.05555555555555555,13.333333333333332,0)" xlink:href="#bn"/><use transform="matrix(0.05555555555555555,0,0,0.05555555555555555,23.333333333333332,0)" xlink:href="#aO"/><use transform="matrix(0.05555555555555555,0,0,0.05555555555555555,34.44444444444444,0)" xlink:href="#aM"/><use transform="matrix(0.05555555555555555,0,0,0.05555555555555555,38.83333333333333,0)" xlink:href="#aV"/><use transform="matrix(0.05555555555555555,0,0,0.05555555555555555,49.94444444444444,0)" xlink:href="#aO"/><use transform="matrix(0.05555555555555555,0,0,0.05555555555555555,61.05555555555555,0)" xlink:href="#aG"/><use transform="matrix(0.05555555555555555,0,0,0.05555555555555555,66.61111111111111,0)" xlink:href="#aN"/></g><path fill="#333" d="M234-2c-28 10-62 0-77-18C117 19 8 12 13-65c3-43 29-61 60-76-25-40-17-114 47-108 35 3 59 15 59 50 0 44-40 53-71 69 14 26 32 50 51 72 14-21 24-43 30-72l26 8c-9 33-21 57-38 82 13 13 33 22 57 15v23zM97-151c25-10 52-18 56-48-1-18-13-29-33-29-42 0-39 50-23 77zM42-66c-3 51 71 58 98 28-20-24-41-51-56-80-23 10-40 24-42 52" id="bo"/><use transform="matrix(0.05555555555555555,0,0,0.05555555555555555,0,0)" xlink:href="#bo" id="B"/><path fill="#333" d="M143 0L79-87 56-68V0H24v-261h32v163l83-92h37l-77 82L181 0h-38" id="bp"/><g id="C"><use transform="matrix(0.05555555555555555,0,0,0.05555555555555555,0,0)" xlink:href="#aD"/><use transform="matrix(0.05555555555555555,0,0,0.05555555555555555,13.333333333333332,0)" xlink:href="#aS"/><use transform="matrix(0.05555555555555555,0,0,0.05555555555555555,17.72222222222222,0)" xlink:href="#bj"/><use transform="matrix(0.05555555555555555,0,0,0.05555555555555555,27.72222222222222,0)" xlink:href="#bp"/></g><g id="D"><use transform="matrix(0.05555555555555555,0,0,0.05555555555555555,0,0)" xlink:href="#aJ"/><use transform="matrix(0.05555555555555555,0,0,0.05555555555555555,13.333333333333332,0)" xlink:href="#aR"/><use transform="matrix(0.05555555555555555,0,0,0.05555555555555555,24.444444444444443,0)" xlink:href="#aR"/><use transform="matrix(0.05555555555555555,0,0,0.05555555555555555,35.55555555555556,0)" xlink:href="#aM"/><use transform="matrix(0.05555555555555555,0,0,0.05555555555555555,39.94444444444444,0)" xlink:href="#bl"/></g><path fill="#333" d="M30-248c118-7 216 8 213 122C240-48 200 0 122 0H30v-248zM63-27c89 8 146-16 146-99s-60-101-146-95v194" id="bq"/><path fill="#333" d="M233-177c-1 41-23 64-60 70L243 0h-38l-65-103H63V0H30v-248c88 3 205-21 203 71zM63-129c60-2 137 13 137-47 0-61-80-42-137-45v92" id="br"/><g id="E"><use transform="matrix(0.05555555555555555,0,0,0.05555555555555555,0,0)" xlink:href="#bq"/><use transform="matrix(0.05555555555555555,0,0,0.05555555555555555,14.388888888888888,0)" xlink:href="#bq"/><use transform="matrix(0.05555555555555555,0,0,0.05555555555555555,28.777777777777775,0)" xlink:href="#br"/></g><path fill="#fff" d="M169-182c-1-43-94-46-97-3 18 66 151 10 154 114 3 95-165 93-204 36-6-8-10-19-12-30l50-8c3 46 112 56 116 5-17-69-150-10-154-114-4-87 153-88 188-35 5 8 8 18 10 28" id="bs"/><path fill="#fff" d="M135-150c-39-12-60 13-60 57V0H25l-1-190h47c2 13-1 29 3 40 6-28 27-53 61-41v41" id="bt"/><path fill="#fff" d="M85 4C-2 5 27-109 22-190h50c7 57-23 150 33 157 60-5 35-97 40-157h50l1 190h-47c-2-12 1-28-3-38-12 25-28 42-61 42" id="bu"/><path fill="#fff" d="M185-48c-13 30-37 53-82 52C43 2 14-33 14-96s30-98 90-98c62 0 83 45 84 108H66c0 31 8 55 39 56 18 0 30-7 34-22zm-45-69c5-46-57-63-70-21-2 6-4 13-4 21h74" id="bv"/><path fill="#fff" d="M88-194c31-1 46 15 58 34l-1-101h50l1 261h-48c-2-10 0-23-3-31C134-8 116 4 84 4 32 4 16-41 15-95c0-56 19-97 73-99zm17 164c33 0 40-30 41-66 1-37-9-64-41-64s-38 30-39 65c0 43 13 65 39 65" id="bw"/><g id="F"><use transform="matrix(0.05555555555555555,0,0,0.05555555555555555,0,0)" xlink:href="#bs"/><use transform="matrix(0.05555555555555555,0,0,0.05555555555555555,13.333333333333332,0)" xlink:href="#aA"/><use transform="matrix(0.05555555555555555,0,0,0.05555555555555555,19.944444444444443,0)" xlink:href="#bt"/><use transform="matrix(0.05555555555555555,0,0,0.05555555555555555,27.72222222222222,0)" xlink:href="#bu"/><use transform="matrix(0.05555555555555555,0,0,0.05555555555555555,39.888888888888886,0)" xlink:href="#ay"/><use transform="matrix(0.05555555555555555,0,0,0.05555555555555555,51,0)" xlink:href="#aA"/><use transform="matrix(0.05555555555555555,0,0,0.05555555555555555,57.61111111111112,0)" xlink:href="#bu"/><use transform="matrix(0.05555555555555555,0,0,0.05555555555555555,69.77777777777779,0)" xlink:href="#bt"/><use transform="matrix(0.05555555555555555,0,0,0.05555555555555555,77.55555555555556,0)" xlink:href="#bv"/><use transform="matrix(0.05555555555555555,0,0,0.05555555555555555,88.66666666666667,0)" xlink:href="#bw"/></g><path fill="#fff" d="M137-138c1-29-70-34-71-4 15 46 118 7 119 86 1 83-164 76-172 9l43-7c4 19 20 25 44 25 33 8 57-30 24-41C81-84 22-81 20-136c-2-80 154-74 161-7" id="bx"/><g id="G"><use transform="matrix(0.05555555555555555,0,0,0.05555555555555555,0,0)" xlink:href="#bw"/><use transform="matrix(0.05555555555555555,0,0,0.05555555555555555,12.166666666666666,0)" xlink:href="#az"/><use transform="matrix(0.05555555555555555,0,0,0.05555555555555555,23.27777777777778,0)" xlink:href="#aA"/><use transform="matrix(0.05555555555555555,0,0,0.05555555555555555,29.888888888888886,0)" xlink:href="#az"/><use transform="matrix(0.05555555555555555,0,0,0.05555555555555555,41,0)" xlink:href="#bx"/><use transform="matrix(0.05555555555555555,0,0,0.05555555555555555,52.111111111111114,0)" xlink:href="#bv"/><use transform="matrix(0.05555555555555555,0,0,0.05555555555555555,63.22222222222223,0)" xlink:href="#aA"/></g><path d="M182-130c37 4 62 22 62 59C244 23 116-4 24 0v-248c84 5 203-23 205 63 0 31-19 50-47 55zM76-148c40-3 101 13 101-30 0-44-60-28-101-31v61zm0 110c48-3 116 14 116-37 0-48-69-32-116-35v72" id="by"/><path d="M137-138c1-29-70-34-71-4 15 46 118 7 119 86 1 83-164 76-172 9l43-7c4 19 20 25 44 25 33 8 57-30 24-41C81-84 22-81 20-136c-2-80 154-74 161-7" id="bz"/><path d="M115-3C79 11 28 4 28-45v-112H4v-33h27l15-45h31v45h36v33H77v99c-1 23 16 31 38 25v30" id="bA"/><g id="H"><use transform="matrix(0.05555555555555555,0,0,0.05555555555555555,0,0)" xlink:href="#by"/><use transform="matrix(0.05555555555555555,0,0,0.05555555555555555,14.388888888888888,0)" xlink:href="#bg"/><use transform="matrix(0.05555555555555555,0,0,0.05555555555555555,25.5,0)" xlink:href="#bz"/><use transform="matrix(0.05555555555555555,0,0,0.05555555555555555,36.611111111111114,0)" xlink:href="#bA"/></g><path d="M114-157C55-157 80-60 75 0H25v-261h50l-1 109c12-26 28-41 61-42 86-1 58 113 63 194h-50c-7-57 23-157-34-157" id="bB"/><path d="M135-150c-39-12-60 13-60 57V0H25l-1-190h47c2 13-1 29 3 40 6-28 27-53 61-41v41" id="bC"/><g id="I"><use transform="matrix(0.05555555555555555,0,0,0.05555555555555555,0,0)" xlink:href="#bz"/><use transform="matrix(0.05555555555555555,0,0,0.05555555555555555,11.11111111111111,0)" xlink:href="#bB"/><use transform="matrix(0.05555555555555555,0,0,0.05555555555555555,23.27777777777778,0)" xlink:href="#be"/><use transform="matrix(0.05555555555555555,0,0,0.05555555555555555,35.44444444444444,0)" xlink:href="#bC"/><use transform="matrix(0.05555555555555555,0,0,0.05555555555555555,43.22222222222222,0)" xlink:href="#bA"/></g><path d="M25-224v-37h50v37H25zM25 0v-190h50V0H25" id="bD"/><path d="M190-63c-7 42-38 67-86 67-59 0-84-38-90-98-12-110 154-137 174-36l-49 2c-2-19-15-32-35-32-30 0-35 28-38 64-6 74 65 87 74 30" id="bE"/><path d="M135-194c87-1 58 113 63 194h-50c-7-57 23-157-34-157-59 0-34 97-39 157H25l-1-190h47c2 12-1 28 3 38 12-26 28-41 61-42" id="bF"/><path d="M133-34C117-15 103 5 69 4 32 3 11-16 11-54c-1-60 55-63 116-61 1-26-3-47-28-47-18 1-26 9-28 27l-52-2c7-38 36-58 82-57s74 22 75 68l1 82c-1 14 12 18 25 15v27c-30 8-71 5-69-32zm-48 3c29 0 43-24 42-57-32 0-66-3-65 30 0 17 8 27 23 27" id="bG"/><path d="M123 10C108 53 80 86 19 72V37c35 8 53-11 59-39L3-190h52l48 148c12-52 28-100 44-148h51" id="bH"/><g id="J"><use transform="matrix(0.05555555555555555,0,0,0.05555555555555555,0,0)" xlink:href="#bf"/><use transform="matrix(0.05555555555555555,0,0,0.05555555555555555,12.166666666666666,0)" xlink:href="#bD"/><use transform="matrix(0.05555555555555555,0,0,0.05555555555555555,17.72222222222222,0)" xlink:href="#bE"/><use transform="matrix(0.05555555555555555,0,0,0.05555555555555555,28.833333333333332,0)" xlink:href="#bA"/><use transform="matrix(0.05555555555555555,0,0,0.05555555555555555,35.44444444444444,0)" xlink:href="#bD"/><use transform="matrix(0.05555555555555555,0,0,0.05555555555555555,41,0)" xlink:href="#be"/><use transform="matrix(0.05555555555555555,0,0,0.05555555555555555,53.166666666666664,0)" xlink:href="#bF"/><use transform="matrix(0.05555555555555555,0,0,0.05555555555555555,65.33333333333333,0)" xlink:href="#bG"/><use transform="matrix(0.05555555555555555,0,0,0.05555555555555555,76.44444444444444,0)" xlink:href="#bC"/><use transform="matrix(0.05555555555555555,0,0,0.05555555555555555,84.22222222222221,0)" xlink:href="#bH"/></g><path fill="#333" d="M210-169c-67 3-38 105-44 169h-31v-121c0-29-5-50-35-48C34-165 62-65 56 0H25l-1-190h30c1 10-1 24 2 32 10-44 99-50 107 0 11-21 27-35 58-36 85-2 47 119 55 194h-31v-121c0-29-5-49-35-48" id="bI"/><g id="K"><use transform="matrix(0.05555555555555555,0,0,0.05555555555555555,0,0)" xlink:href="#aL"/><use transform="matrix(0.05555555555555555,0,0,0.05555555555555555,14.388888888888888,0)" xlink:href="#aE"/><use transform="matrix(0.05555555555555555,0,0,0.05555555555555555,25.5,0)" xlink:href="#bI"/><use transform="matrix(0.05555555555555555,0,0,0.05555555555555555,42.111111111111114,0)" xlink:href="#bk"/><use transform="matrix(0.05555555555555555,0,0,0.05555555555555555,53.22222222222223,0)" xlink:href="#aS"/><use transform="matrix(0.05555555555555555,0,0,0.05555555555555555,57.61111111111112,0)" xlink:href="#aP"/><use transform="matrix(0.05555555555555555,0,0,0.05555555555555555,68.72222222222223,0)" xlink:href="#aO"/><use transform="matrix(0.05555555555555555,0,0,0.05555555555555555,79.83333333333334,0)" xlink:href="#aG"/><use transform="matrix(0.05555555555555555,0,0,0.05555555555555555,85.3888888888889,0)" xlink:href="#aS"/><use transform="matrix(0.05555555555555555,0,0,0.05555555555555555,89.77777777777779,0)" xlink:href="#aE"/><use transform="matrix(0.05555555555555555,0,0,0.05555555555555555,100.8888888888889,0)" xlink:href="#aP"/><use transform="matrix(0.05555555555555555,0,0,0.05555555555555555,112.00000000000001,0)" xlink:href="#aF"/></g><g id="L"><use transform="matrix(0.05555555555555555,0,0,0.05555555555555555,0,0)" xlink:href="#aJ"/><use transform="matrix(0.05555555555555555,0,0,0.05555555555555555,13.333333333333332,0)" xlink:href="#aR"/><use transform="matrix(0.05555555555555555,0,0,0.05555555555555555,24.444444444444443,0)" xlink:href="#aR"/><use transform="matrix(0.05555555555555555,0,0,0.05555555555555555,35.55555555555556,0)" xlink:href="#aM"/><use transform="matrix(0.05555555555555555,0,0,0.05555555555555555,39.94444444444444,0)" xlink:href="#bl"/></g><g id="M"><use transform="matrix(0.05555555555555555,0,0,0.05555555555555555,0,0)" xlink:href="#bq"/><use transform="matrix(0.05555555555555555,0,0,0.05555555555555555,14.388888888888888,0)" xlink:href="#bq"/><use transform="matrix(0.05555555555555555,0,0,0.05555555555555555,28.777777777777775,0)" xlink:href="#br"/></g><g id="N"><use transform="matrix(0.05555555555555555,0,0,0.05555555555555555,0,0)" xlink:href="#aQ"/><use transform="matrix(0.05555555555555555,0,0,0.05555555555555555,13.333333333333332,0)" xlink:href="#aU"/><use transform="matrix(0.05555555555555555,0,0,0.05555555555555555,24.444444444444443,0)" xlink:href="#aE"/><use transform="matrix(0.05555555555555555,0,0,0.05555555555555555,35.55555555555556,0)" xlink:href="#aY"/><use transform="matrix(0.05555555555555555,0,0,0.05555555555555555,42.16666666666667,0)" xlink:href="#aG"/><use transform="matrix(0.05555555555555555,0,0,0.05555555555555555,47.72222222222223,0)" xlink:href="#aM"/><use transform="matrix(0.05555555555555555,0,0,0.05555555555555555,52.111111111111114,0)" xlink:href="#aS"/><use transform="matrix(0.05555555555555555,0,0,0.05555555555555555,56.5,0)" xlink:href="#aF"/><use transform="matrix(0.05555555555555555,0,0,0.05555555555555555,66.5,0)" xlink:href="#aG"/></g><g id="O"><use transform="matrix(0.05555555555555555,0,0,0.05555555555555555,0,0)" xlink:href="#aE"/><use transform="matrix(0.05555555555555555,0,0,0.05555555555555555,11.11111111111111,0)" xlink:href="#aW"/></g><path fill="#333" d="M206 0h-36l-40-164L89 0H53L-1-190h32L70-26l43-164h34l41 164 42-164h31" id="bJ"/><g id="P"><use transform="matrix(0.05555555555555555,0,0,0.05555555555555555,0,0)" xlink:href="#bJ"/><use transform="matrix(0.05555555555555555,0,0,0.05555555555555555,14.388888888888888,0)" xlink:href="#aE"/><use transform="matrix(0.05555555555555555,0,0,0.05555555555555555,25.5,0)" xlink:href="#aY"/><use transform="matrix(0.05555555555555555,0,0,0.05555555555555555,32.111111111111114,0)" xlink:href="#ba"/><use transform="matrix(0.05555555555555555,0,0,0.05555555555555555,43.22222222222223,0)" xlink:href="#aF"/></g><g id="Q"><use transform="matrix(0.05555555555555555,0,0,0.05555555555555555,0,0)" xlink:href="#aL"/><use transform="matrix(0.05555555555555555,0,0,0.05555555555555555,14.388888888888888,0)" xlink:href="#aE"/><use transform="matrix(0.05555555555555555,0,0,0.05555555555555555,25.5,0)" xlink:href="#bI"/><use transform="matrix(0.05555555555555555,0,0,0.05555555555555555,42.111111111111114,0)" xlink:href="#bk"/><use transform="matrix(0.05555555555555555,0,0,0.05555555555555555,53.22222222222223,0)" xlink:href="#aS"/><use transform="matrix(0.05555555555555555,0,0,0.05555555555555555,57.61111111111112,0)" xlink:href="#aP"/><use transform="matrix(0.05555555555555555,0,0,0.05555555555555555,68.72222222222223,0)" xlink:href="#aN"/></g><g id="R"><use transform="matrix(0.05555555555555555,0,0,0.05555555555555555,0,0)" xlink:href="#bm"/><use transform="matrix(0.05555555555555555,0,0,0.05555555555555555,13.333333333333332,0)" xlink:href="#bn"/><use transform="matrix(0.05555555555555555,0,0,0.05555555555555555,23.333333333333332,0)" xlink:href="#aO"/><use transform="matrix(0.05555555555555555,0,0,0.05555555555555555,34.44444444444444,0)" xlink:href="#aM"/><use transform="matrix(0.05555555555555555,0,0,0.05555555555555555,38.83333333333333,0)" xlink:href="#aV"/><use transform="matrix(0.05555555555555555,0,0,0.05555555555555555,49.94444444444444,0)" xlink:href="#aO"/><use transform="matrix(0.05555555555555555,0,0,0.05555555555555555,61.05555555555555,0)" xlink:href="#aG"/><use transform="matrix(0.05555555555555555,0,0,0.05555555555555555,66.61111111111111,0)" xlink:href="#aN"/></g><g id="S"><use transform="matrix(0.05555555555555555,0,0,0.05555555555555555,0,0)" xlink:href="#aQ"/><use transform="matrix(0.05555555555555555,0,0,0.05555555555555555,13.333333333333332,0)" xlink:href="#aO"/><use transform="matrix(0.05555555555555555,0,0,0.05555555555555555,24.444444444444443,0)" xlink:href="#bI"/><use transform="matrix(0.05555555555555555,0,0,0.05555555555555555,41.05555555555556,0)" xlink:href="#aR"/><use transform="matrix(0.05555555555555555,0,0,0.05555555555555555,52.16666666666667,0)" xlink:href="#aM"/><use transform="matrix(0.05555555555555555,0,0,0.05555555555555555,56.55555555555556,0)" xlink:href="#aN"/></g><g id="T"><use transform="matrix(0.05555555555555555,0,0,0.05555555555555555,0,0)" xlink:href="#aL"/><use transform="matrix(0.05555555555555555,0,0,0.05555555555555555,14.388888888888888,0)" xlink:href="#aE"/><use transform="matrix(0.05555555555555555,0,0,0.05555555555555555,25.5,0)" xlink:href="#bI"/><use transform="matrix(0.05555555555555555,0,0,0.05555555555555555,42.111111111111114,0)" xlink:href="#bI"/><use transform="matrix(0.05555555555555555,0,0,0.05555555555555555,58.72222222222223,0)" xlink:href="#aN"/><use transform="matrix(0.05555555555555555,0,0,0.05555555555555555,69.83333333333334,0)" xlink:href="#aP"/><use transform="matrix(0.05555555555555555,0,0,0.05555555555555555,80.94444444444446,0)" xlink:href="#aG"/><use transform="matrix(0.05555555555555555,0,0,0.05555555555555555,86.50000000000001,0)" xlink:href="#aF"/></g><path fill="#333" d="M16-82v-28h88v28H16" id="bK"/><g id="U"><use transform="matrix(0.05555555555555555,0,0,0.05555555555555555,0,0)" xlink:href="#aZ"/><use transform="matrix(0.05555555555555555,0,0,0.05555555555555555,16.61111111111111,0)" xlink:href="#aO"/><use transform="matrix(0.05555555555555555,0,0,0.05555555555555555,27.72222222222222,0)" xlink:href="#bj"/><use transform="matrix(0.05555555555555555,0,0,0.05555555555555555,37.72222222222222,0)" xlink:href="#aU"/><use transform="matrix(0.05555555555555555,0,0,0.05555555555555555,48.83333333333333,0)" xlink:href="#aS"/><use transform="matrix(0.05555555555555555,0,0,0.05555555555555555,53.222222222222214,0)" xlink:href="#aP"/><use transform="matrix(0.05555555555555555,0,0,0.05555555555555555,64.33333333333333,0)" xlink:href="#aN"/><use transform="matrix(0.05555555555555555,0,0,0.05555555555555555,75.44444444444444,0)" xlink:href="#bK"/></g><g id="V"><use transform="matrix(0.05555555555555555,0,0,0.05555555555555555,0,0)" xlink:href="#aG"/><use transform="matrix(0.05555555555555555,0,0,0.05555555555555555,5.555555555555555,0)" xlink:href="#aY"/><use transform="matrix(0.05555555555555555,0,0,0.05555555555555555,12.166666666666666,0)" xlink:href="#aO"/><use transform="matrix(0.05555555555555555,0,0,0.05555555555555555,23.27777777777778,0)" xlink:href="#aP"/><use transform="matrix(0.05555555555555555,0,0,0.05555555555555555,34.388888888888886,0)" xlink:href="#aF"/><use transform="matrix(0.05555555555555555,0,0,0.05555555555555555,44.388888888888886,0)" xlink:href="#aM"/><use transform="matrix(0.05555555555555555,0,0,0.05555555555555555,48.77777777777777,0)" xlink:href="#aO"/><use transform="matrix(0.05555555555555555,0,0,0.05555555555555555,59.888888888888886,0)" xlink:href="#aG"/><use transform="matrix(0.05555555555555555,0,0,0.05555555555555555,65.44444444444444,0)" xlink:href="#aN"/></g><g id="W"><use transform="matrix(0.05555555555555555,0,0,0.05555555555555555,0,0)" xlink:href="#aX"/><use transform="matrix(0.05555555555555555,0,0,0.05555555555555555,11.444444444444445,0)" xlink:href="#aY"/><use transform="matrix(0.05555555555555555,0,0,0.05555555555555555,18.055555555555557,0)" xlink:href="#aV"/><use transform="matrix(0.05555555555555555,0,0,0.05555555555555555,29.166666666666664,0)" xlink:href="#aP"/><use transform="matrix(0.05555555555555555,0,0,0.05555555555555555,40.27777777777778,0)" xlink:href="#bj"/><use transform="matrix(0.05555555555555555,0,0,0.05555555555555555,50.27777777777778,0)" xlink:href="#aO"/><use transform="matrix(0.05555555555555555,0,0,0.05555555555555555,61.388888888888886,0)" xlink:href="#aG"/><use transform="matrix(0.05555555555555555,0,0,0.05555555555555555,66.94444444444444,0)" xlink:href="#aN"/></g></defs></g></svg>